<svg width="192" viewBox="0 0 192 78" fill="none" xmlns="http://www.w3.org/2000/svg">
<path d="M81.58 52H80.7V49.08C80.7 48.5333 80.61 48.13 80.43 47.87C80.2567 47.61 79.9967 47.48 79.65 47.48C79.2967 47.48 78.9767 47.61 78.69 47.87C78.4033 48.1233 78.2 48.4533 78.08 48.86V52H77.2V49.08C77.2 48.5267 77.1133 48.1233 76.94 47.87C76.7667 47.61 76.5067 47.48 76.16 47.48C75.8133 47.48 75.4933 47.6067 75.2 47.86C74.9133 48.1067 74.71 48.4367 74.59 48.85V52H73.71V46.78H74.51V47.9C74.7233 47.5133 75 47.2167 75.34 47.01C75.68 46.7967 76.0633 46.69 76.49 46.69C76.9233 46.69 77.27 46.81 77.53 47.05C77.79 47.2833 77.95 47.5867 78.01 47.96C78.2433 47.5467 78.5267 47.2333 78.86 47.02C79.1933 46.8 79.5733 46.69 80 46.69C80.3 46.69 80.55 46.7467 80.75 46.86C80.9567 46.9667 81.12 47.12 81.24 47.32C81.36 47.5133 81.4467 47.7433 81.5 48.01C81.5533 48.2767 81.58 48.5667 81.58 48.88V52ZM85.2583 52.1C84.8649 52.1 84.5049 52.03 84.1783 51.89C83.8583 51.7433 83.5783 51.5467 83.3383 51.3C83.1049 51.0467 82.9216 50.7567 82.7883 50.43C82.6616 50.1033 82.5983 49.7567 82.5983 49.39C82.5983 48.8967 82.7116 48.4467 82.9383 48.04C83.1649 47.6333 83.4783 47.3067 83.8783 47.06C84.2849 46.8133 84.7483 46.69 85.2683 46.69C85.7949 46.69 86.2516 46.8167 86.6383 47.07C87.0316 47.3167 87.3349 47.6433 87.5483 48.05C87.7683 48.45 87.8783 48.8833 87.8783 49.35C87.8783 49.4167 87.8749 49.4833 87.8683 49.55C87.8683 49.61 87.8649 49.6567 87.8583 49.69H83.5283C83.5549 50.03 83.6483 50.3333 83.8083 50.6C83.9749 50.86 84.1883 51.0667 84.4483 51.22C84.7083 51.3667 84.9883 51.44 85.2883 51.44C85.6083 51.44 85.9083 51.36 86.1883 51.2C86.4749 51.04 86.6716 50.83 86.7783 50.57L87.5383 50.78C87.4249 51.0333 87.2549 51.26 87.0283 51.46C86.8083 51.66 86.5449 51.8167 86.2383 51.93C85.9383 52.0433 85.6116 52.1 85.2583 52.1ZM83.4983 49.08H87.0583C87.0316 48.74 86.9349 48.44 86.7683 48.18C86.6016 47.92 86.3883 47.7167 86.1283 47.57C85.8683 47.4233 85.5816 47.35 85.2683 47.35C84.9616 47.35 84.6783 47.4233 84.4183 47.57C84.1583 47.7167 83.9449 47.92 83.7783 48.18C83.6183 48.44 83.5249 48.74 83.4983 49.08ZM93.3865 52H92.5065V49.08C92.5065 48.5267 92.4198 48.1233 92.2465 47.87C92.0798 47.61 91.8232 47.48 91.4765 47.48C91.2365 47.48 90.9965 47.54 90.7565 47.66C90.5232 47.78 90.3132 47.9433 90.1265 48.15C89.9465 48.35 89.8165 48.5833 89.7365 48.85V52H88.8565V46.78H89.6565V47.9C89.7965 47.6533 89.9765 47.44 90.1965 47.26C90.4165 47.08 90.6665 46.94 90.9465 46.84C91.2265 46.74 91.5198 46.69 91.8265 46.69C92.1265 46.69 92.3765 46.7467 92.5765 46.86C92.7832 46.9667 92.9432 47.12 93.0565 47.32C93.1765 47.5133 93.2598 47.7433 93.3065 48.01C93.3598 48.2767 93.3865 48.5667 93.3865 48.88V52ZM97.4061 51.74C97.3328 51.7733 97.2328 51.8167 97.1061 51.87C96.9794 51.9233 96.8328 51.97 96.6661 52.01C96.4994 52.05 96.3228 52.07 96.1361 52.07C95.9228 52.07 95.7261 52.0333 95.5461 51.96C95.3661 51.88 95.2228 51.76 95.1161 51.6C95.0094 51.4333 94.9561 51.2267 94.9561 50.98V47.47H94.2461V46.78H94.9561V45.04H95.8361V46.78H97.0061V47.47H95.8361V50.71C95.8494 50.8967 95.9128 51.0367 96.0261 51.13C96.1394 51.2167 96.2728 51.26 96.4261 51.26C96.5994 51.26 96.7594 51.23 96.9061 51.17C97.0528 51.11 97.1494 51.0667 97.1961 51.04L97.4061 51.74ZM97.8117 50.49C97.8117 50.1567 97.9051 49.87 98.0917 49.63C98.2851 49.3833 98.5484 49.1933 98.8817 49.06C99.2151 48.9267 99.6017 48.86 100.042 48.86C100.275 48.86 100.522 48.88 100.782 48.92C101.042 48.9533 101.272 49.0067 101.472 49.08V48.7C101.472 48.3 101.352 47.9867 101.112 47.76C100.872 47.5267 100.532 47.41 100.092 47.41C99.8051 47.41 99.5284 47.4633 99.2617 47.57C99.0017 47.67 98.7251 47.8167 98.4317 48.01L98.1117 47.39C98.4517 47.1567 98.7917 46.9833 99.1317 46.87C99.4717 46.75 99.8251 46.69 100.192 46.69C100.858 46.69 101.385 46.8767 101.772 47.25C102.158 47.6167 102.352 48.13 102.352 48.79V51C102.352 51.1067 102.372 51.1867 102.412 51.24C102.458 51.2867 102.532 51.3133 102.632 51.32V52C102.545 52.0133 102.468 52.0233 102.402 52.03C102.342 52.0367 102.292 52.04 102.252 52.04C102.045 52.04 101.888 51.9833 101.782 51.87C101.682 51.7567 101.625 51.6367 101.612 51.51L101.592 51.18C101.365 51.4733 101.068 51.7 100.702 51.86C100.335 52.02 99.9717 52.1 99.6117 52.1C99.2651 52.1 98.9551 52.03 98.6817 51.89C98.4084 51.7433 98.1951 51.55 98.0417 51.31C97.8884 51.0633 97.8117 50.79 97.8117 50.49ZM101.212 50.86C101.292 50.7667 101.355 50.6733 101.402 50.58C101.448 50.48 101.472 50.3967 101.472 50.33V49.68C101.265 49.6 101.048 49.54 100.822 49.5C100.595 49.4533 100.372 49.43 100.152 49.43C99.7051 49.43 99.3417 49.52 99.0617 49.7C98.7884 49.8733 98.6517 50.1133 98.6517 50.42C98.6517 50.5867 98.6951 50.75 98.7817 50.91C98.8751 51.0633 99.0084 51.19 99.1817 51.29C99.3617 51.39 99.5817 51.44 99.8417 51.44C100.115 51.44 100.375 51.3867 100.622 51.28C100.868 51.1667 101.065 51.0267 101.212 50.86ZM103.779 44.7H104.659V50.65C104.659 50.9367 104.699 51.1133 104.779 51.18C104.859 51.2467 104.955 51.28 105.069 51.28C105.209 51.28 105.342 51.2667 105.469 51.24C105.595 51.2067 105.702 51.1733 105.789 51.14L105.929 51.86C105.782 51.92 105.609 51.97 105.409 52.01C105.209 52.05 105.032 52.07 104.879 52.07C104.539 52.07 104.269 51.9733 104.069 51.78C103.875 51.5867 103.779 51.3167 103.779 50.97V44.7ZM113.377 52H112.497V49.08C112.497 48.5467 112.4 48.1467 112.207 47.88C112.02 47.6133 111.75 47.48 111.397 47.48C111.17 47.48 110.94 47.54 110.707 47.66C110.48 47.78 110.28 47.9433 110.107 48.15C109.933 48.35 109.807 48.5833 109.727 48.85V52H108.847V44.7H109.727V47.9C109.933 47.5267 110.213 47.2333 110.567 47.02C110.927 46.8 111.313 46.69 111.727 46.69C112.04 46.69 112.3 46.7467 112.507 46.86C112.72 46.9667 112.89 47.12 113.017 47.32C113.143 47.52 113.233 47.7533 113.287 48.02C113.347 48.28 113.377 48.5667 113.377 48.88V52ZM117.055 52.1C116.662 52.1 116.302 52.03 115.975 51.89C115.655 51.7433 115.375 51.5467 115.135 51.3C114.902 51.0467 114.718 50.7567 114.585 50.43C114.458 50.1033 114.395 49.7567 114.395 49.39C114.395 48.8967 114.508 48.4467 114.735 48.04C114.962 47.6333 115.275 47.3067 115.675 47.06C116.082 46.8133 116.545 46.69 117.065 46.69C117.592 46.69 118.048 46.8167 118.435 47.07C118.828 47.3167 119.132 47.6433 119.345 48.05C119.565 48.45 119.675 48.8833 119.675 49.35C119.675 49.4167 119.672 49.4833 119.665 49.55C119.665 49.61 119.662 49.6567 119.655 49.69H115.325C115.352 50.03 115.445 50.3333 115.605 50.6C115.772 50.86 115.985 51.0667 116.245 51.22C116.505 51.3667 116.785 51.44 117.085 51.44C117.405 51.44 117.705 51.36 117.985 51.2C118.272 51.04 118.468 50.83 118.575 50.57L119.335 50.78C119.222 51.0333 119.052 51.26 118.825 51.46C118.605 51.66 118.342 51.8167 118.035 51.93C117.735 52.0433 117.408 52.1 117.055 52.1ZM115.295 49.08H118.855C118.828 48.74 118.732 48.44 118.565 48.18C118.398 47.92 118.185 47.7167 117.925 47.57C117.665 47.4233 117.378 47.35 117.065 47.35C116.758 47.35 116.475 47.4233 116.215 47.57C115.955 47.7167 115.742 47.92 115.575 48.18C115.415 48.44 115.322 48.74 115.295 49.08ZM120.243 50.49C120.243 50.1567 120.337 49.87 120.523 49.63C120.717 49.3833 120.98 49.1933 121.313 49.06C121.647 48.9267 122.033 48.86 122.473 48.86C122.707 48.86 122.953 48.88 123.213 48.92C123.473 48.9533 123.703 49.0067 123.903 49.08V48.7C123.903 48.3 123.783 47.9867 123.543 47.76C123.303 47.5267 122.963 47.41 122.523 47.41C122.237 47.41 121.96 47.4633 121.693 47.57C121.433 47.67 121.157 47.8167 120.863 48.01L120.543 47.39C120.883 47.1567 121.223 46.9833 121.563 46.87C121.903 46.75 122.257 46.69 122.623 46.69C123.29 46.69 123.817 46.8767 124.203 47.25C124.59 47.6167 124.783 48.13 124.783 48.79V51C124.783 51.1067 124.803 51.1867 124.843 51.24C124.89 51.2867 124.963 51.3133 125.063 51.32V52C124.977 52.0133 124.9 52.0233 124.833 52.03C124.773 52.0367 124.723 52.04 124.683 52.04C124.477 52.04 124.32 51.9833 124.213 51.87C124.113 51.7567 124.057 51.6367 124.043 51.51L124.023 51.18C123.797 51.4733 123.5 51.7 123.133 51.86C122.767 52.02 122.403 52.1 122.043 52.1C121.697 52.1 121.387 52.03 121.113 51.89C120.84 51.7433 120.627 51.55 120.473 51.31C120.32 51.0633 120.243 50.79 120.243 50.49ZM123.643 50.86C123.723 50.7667 123.787 50.6733 123.833 50.58C123.88 50.48 123.903 50.3967 123.903 50.33V49.68C123.697 49.6 123.48 49.54 123.253 49.5C123.027 49.4533 122.803 49.43 122.583 49.43C122.137 49.43 121.773 49.52 121.493 49.7C121.22 49.8733 121.083 50.1133 121.083 50.42C121.083 50.5867 121.127 50.75 121.213 50.91C121.307 51.0633 121.44 51.19 121.613 51.29C121.793 51.39 122.013 51.44 122.273 51.44C122.547 51.44 122.807 51.3867 123.053 51.28C123.3 51.1667 123.497 51.0267 123.643 50.86ZM126.21 44.7H127.09V50.65C127.09 50.9367 127.13 51.1133 127.21 51.18C127.29 51.2467 127.387 51.28 127.5 51.28C127.64 51.28 127.774 51.2667 127.9 51.24C128.027 51.2067 128.134 51.1733 128.22 51.14L128.36 51.86C128.214 51.92 128.04 51.97 127.84 52.01C127.64 52.05 127.464 52.07 127.31 52.07C126.97 52.07 126.7 51.9733 126.5 51.78C126.307 51.5867 126.21 51.3167 126.21 50.97V44.7ZM131.752 51.74C131.678 51.7733 131.578 51.8167 131.452 51.87C131.325 51.9233 131.178 51.97 131.012 52.01C130.845 52.05 130.668 52.07 130.482 52.07C130.268 52.07 130.072 52.0333 129.892 51.96C129.712 51.88 129.568 51.76 129.462 51.6C129.355 51.4333 129.302 51.2267 129.302 50.98V47.47H128.592V46.78H129.302V45.04H130.182V46.78H131.352V47.47H130.182V50.71C130.195 50.8967 130.258 51.0367 130.372 51.13C130.485 51.2167 130.618 51.26 130.772 51.26C130.945 51.26 131.105 51.23 131.252 51.17C131.398 51.11 131.495 51.0667 131.542 51.04L131.752 51.74ZM137.097 52H136.217V49.08C136.217 48.5467 136.121 48.1467 135.927 47.88C135.741 47.6133 135.471 47.48 135.117 47.48C134.891 47.48 134.661 47.54 134.427 47.66C134.201 47.78 134.001 47.9433 133.827 48.15C133.654 48.35 133.527 48.5833 133.447 48.85V52H132.567V44.7H133.447V47.9C133.654 47.5267 133.934 47.2333 134.287 47.02C134.647 46.8 135.034 46.69 135.447 46.69C135.761 46.69 136.021 46.7467 136.227 46.86C136.441 46.9667 136.611 47.12 136.737 47.32C136.864 47.52 136.954 47.7533 137.007 48.02C137.067 48.28 137.097 48.5667 137.097 48.88V52ZM142.785 52.1C142.352 52.1 141.945 52.03 141.565 51.89C141.185 51.7433 140.858 51.5267 140.585 51.24L140.925 50.62C141.225 50.9 141.525 51.1 141.825 51.22C142.125 51.34 142.432 51.4 142.745 51.4C143.105 51.4 143.398 51.3333 143.625 51.2C143.852 51.06 143.965 50.8567 143.965 50.59C143.965 50.3967 143.905 50.2533 143.785 50.16C143.672 50.0667 143.508 49.99 143.295 49.93C143.082 49.8633 142.828 49.79 142.535 49.71C142.175 49.6033 141.872 49.49 141.625 49.37C141.378 49.25 141.192 49.1 141.065 48.92C140.938 48.74 140.875 48.5133 140.875 48.24C140.875 47.9067 140.962 47.6267 141.135 47.4C141.308 47.1667 141.545 46.99 141.845 46.87C142.152 46.75 142.498 46.69 142.885 46.69C143.272 46.69 143.622 46.75 143.935 46.87C144.248 46.99 144.518 47.1667 144.745 47.4L144.345 48.01C144.138 47.7967 143.912 47.64 143.665 47.54C143.418 47.4333 143.142 47.38 142.835 47.38C142.655 47.38 142.478 47.4033 142.305 47.45C142.132 47.49 141.988 47.5667 141.875 47.68C141.762 47.7867 141.705 47.94 141.705 48.14C141.705 48.3067 141.748 48.44 141.835 48.54C141.928 48.6333 142.062 48.7133 142.235 48.78C142.415 48.8467 142.632 48.92 142.885 49C143.278 49.1133 143.618 49.2267 143.905 49.34C144.198 49.4533 144.425 49.6 144.585 49.78C144.745 49.96 144.825 50.21 144.825 50.53C144.825 51.0233 144.638 51.41 144.265 51.69C143.892 51.9633 143.398 52.1 142.785 52.1ZM145.828 49.91V46.78H146.708V49.74C146.708 50.2733 146.801 50.6733 146.988 50.94C147.175 51.2067 147.451 51.34 147.818 51.34C148.058 51.34 148.288 51.29 148.508 51.19C148.735 51.0833 148.938 50.9333 149.118 50.74C149.298 50.5467 149.438 50.3167 149.538 50.05V46.78H150.418V51C150.418 51.1067 150.438 51.1867 150.478 51.24C150.525 51.2867 150.598 51.3133 150.698 51.32V52C150.598 52.0133 150.518 52.02 150.458 52.02C150.405 52.0267 150.351 52.03 150.298 52.03C150.131 52.03 149.988 51.98 149.868 51.88C149.748 51.7733 149.685 51.6433 149.678 51.49L149.658 50.88C149.431 51.2667 149.125 51.5667 148.738 51.78C148.358 51.9933 147.941 52.1 147.488 52.1C146.941 52.1 146.528 51.9167 146.248 51.55C145.968 51.1767 145.828 50.63 145.828 49.91ZM154.694 52.1C154.267 52.1 153.887 51.9933 153.554 51.78C153.22 51.5667 152.957 51.2967 152.764 50.97V54.13H151.884V46.78H152.664V47.76C152.87 47.44 153.14 47.1833 153.474 46.99C153.807 46.79 154.17 46.69 154.564 46.69C154.924 46.69 155.254 46.7633 155.554 46.91C155.854 47.0567 156.114 47.2567 156.334 47.51C156.554 47.7633 156.724 48.0533 156.844 48.38C156.97 48.7 157.034 49.0367 157.034 49.39C157.034 49.8833 156.934 50.3367 156.734 50.75C156.54 51.1633 156.267 51.4933 155.914 51.74C155.56 51.98 155.154 52.1 154.694 52.1ZM154.424 51.34C154.684 51.34 154.917 51.2867 155.124 51.18C155.337 51.0667 155.517 50.92 155.664 50.74C155.817 50.5533 155.934 50.3433 156.014 50.11C156.094 49.8767 156.134 49.6367 156.134 49.39C156.134 49.13 156.087 48.8833 155.994 48.65C155.907 48.4167 155.78 48.21 155.614 48.03C155.454 47.85 155.264 47.71 155.044 47.61C154.83 47.5033 154.597 47.45 154.344 47.45C154.184 47.45 154.017 47.48 153.844 47.54C153.677 47.6 153.517 47.6867 153.364 47.8C153.21 47.9067 153.08 48.03 152.974 48.17C152.867 48.31 152.797 48.46 152.764 48.62V50.11C152.864 50.3367 152.997 50.5433 153.164 50.73C153.33 50.9167 153.524 51.0667 153.744 51.18C153.964 51.2867 154.19 51.34 154.424 51.34ZM160.924 52.1C160.498 52.1 160.118 51.9933 159.784 51.78C159.451 51.5667 159.188 51.2967 158.994 50.97V54.13H158.114V46.78H158.894V47.76C159.101 47.44 159.371 47.1833 159.704 46.99C160.038 46.79 160.401 46.69 160.794 46.69C161.154 46.69 161.484 46.7633 161.784 46.91C162.084 47.0567 162.344 47.2567 162.564 47.51C162.784 47.7633 162.954 48.0533 163.074 48.38C163.201 48.7 163.264 49.0367 163.264 49.39C163.264 49.8833 163.164 50.3367 162.964 50.75C162.771 51.1633 162.498 51.4933 162.144 51.74C161.791 51.98 161.384 52.1 160.924 52.1ZM160.654 51.34C160.914 51.34 161.148 51.2867 161.354 51.18C161.568 51.0667 161.748 50.92 161.894 50.74C162.048 50.5533 162.164 50.3433 162.244 50.11C162.324 49.8767 162.364 49.6367 162.364 49.39C162.364 49.13 162.318 48.8833 162.224 48.65C162.138 48.4167 162.011 48.21 161.844 48.03C161.684 47.85 161.494 47.71 161.274 47.61C161.061 47.5033 160.828 47.45 160.574 47.45C160.414 47.45 160.248 47.48 160.074 47.54C159.908 47.6 159.748 47.6867 159.594 47.8C159.441 47.9067 159.311 48.03 159.204 48.17C159.098 48.31 159.028 48.46 158.994 48.62V50.11C159.094 50.3367 159.228 50.5433 159.394 50.73C159.561 50.9167 159.754 51.0667 159.974 51.18C160.194 51.2867 160.421 51.34 160.654 51.34ZM166.625 52.1C166.231 52.1 165.875 52.03 165.555 51.89C165.235 51.7433 164.958 51.5467 164.725 51.3C164.491 51.0467 164.311 50.7567 164.185 50.43C164.058 50.1033 163.995 49.76 163.995 49.4C163.995 49.0333 164.058 48.6867 164.185 48.36C164.311 48.0333 164.491 47.7467 164.725 47.5C164.958 47.2467 165.235 47.05 165.555 46.91C165.881 46.7633 166.238 46.69 166.625 46.69C167.018 46.69 167.375 46.7633 167.695 46.91C168.015 47.05 168.291 47.2467 168.525 47.5C168.765 47.7467 168.948 48.0333 169.075 48.36C169.201 48.6867 169.265 49.0333 169.265 49.4C169.265 49.76 169.201 50.1033 169.075 50.43C168.948 50.7567 168.768 51.0467 168.535 51.3C168.301 51.5467 168.021 51.7433 167.695 51.89C167.375 52.03 167.018 52.1 166.625 52.1ZM164.895 49.41C164.895 49.77 164.971 50.0967 165.125 50.39C165.285 50.6833 165.495 50.9167 165.755 51.09C166.015 51.2567 166.305 51.34 166.625 51.34C166.945 51.34 167.235 51.2533 167.495 51.08C167.761 50.9067 167.971 50.6733 168.125 50.38C168.285 50.08 168.365 49.75 168.365 49.39C168.365 49.03 168.285 48.7033 168.125 48.41C167.971 48.1167 167.761 47.8833 167.495 47.71C167.235 47.5367 166.945 47.45 166.625 47.45C166.305 47.45 166.015 47.54 165.755 47.72C165.495 47.8933 165.285 48.1267 165.125 48.42C164.971 48.7133 164.895 49.0433 164.895 49.41ZM173.091 47.55C172.651 47.5567 172.261 47.67 171.921 47.89C171.588 48.1033 171.351 48.4 171.211 48.78V52H170.331V46.78H171.151V47.99C171.331 47.63 171.568 47.34 171.861 47.12C172.161 46.8933 172.474 46.7667 172.801 46.74C172.868 46.74 172.924 46.74 172.971 46.74C173.018 46.74 173.058 46.7433 173.091 46.75V47.55ZM176.664 51.74C176.591 51.7733 176.491 51.8167 176.364 51.87C176.237 51.9233 176.091 51.97 175.924 52.01C175.757 52.05 175.581 52.07 175.394 52.07C175.181 52.07 174.984 52.0333 174.804 51.96C174.624 51.88 174.481 51.76 174.374 51.6C174.267 51.4333 174.214 51.2267 174.214 50.98V47.47H173.504V46.78H174.214V45.04H175.094V46.78H176.264V47.47H175.094V50.71C175.107 50.8967 175.171 51.0367 175.284 51.13C175.397 51.2167 175.531 51.26 175.684 51.26C175.857 51.26 176.017 51.23 176.164 51.17C176.311 51.11 176.407 51.0667 176.454 51.04L176.664 51.74Z" fill="#454545"/>
<path d="M60.872 39.088C60.008 39.088 59.192 38.928 58.424 38.608C57.656 38.304 57.032 37.832 56.552 37.192C56.088 36.552 55.856 35.752 55.856 34.792C55.856 33.96 56.016 33.312 56.336 32.848C56.672 32.384 57.08 32.056 57.56 31.864C58.04 31.672 58.496 31.576 58.928 31.576C58.496 32.04 58.168 32.552 57.944 33.112C57.72 33.672 57.608 34.232 57.608 34.792C57.608 35.384 57.736 35.936 57.992 36.448C58.264 36.96 58.672 37.368 59.216 37.672C59.76 37.992 60.448 38.152 61.28 38.152C62 38.152 62.704 38.016 63.392 37.744C64.08 37.488 64.64 37.104 65.072 36.592C65.52 36.064 65.744 35.416 65.744 34.648C65.744 33.96 65.568 33.368 65.216 32.872C64.864 32.376 64.408 31.936 63.848 31.552C63.304 31.168 62.72 30.8 62.096 30.448C61.472 30.096 60.88 29.728 60.32 29.344C59.776 28.944 59.328 28.488 58.976 27.976C58.624 27.464 58.448 26.848 58.448 26.128C58.448 25.456 58.608 24.752 58.928 24.016C59.248 23.28 59.704 22.584 60.296 21.928C60.904 21.272 61.624 20.744 62.456 20.344C63.304 19.928 64.248 19.72 65.288 19.72C66.232 19.72 66.888 19.952 67.256 20.416C67.624 20.864 67.808 21.432 67.808 22.12C67.808 22.696 67.704 23.32 67.496 23.992C67.304 24.648 67.064 25.28 66.776 25.888C66.488 26.48 66.216 26.984 65.96 27.4C65.672 27.336 65.464 27.216 65.336 27.04C65.224 26.848 65.168 26.624 65.168 26.368C65.168 26.032 65.24 25.648 65.384 25.216C65.528 24.784 65.688 24.336 65.864 23.872C66.056 23.408 66.224 22.96 66.368 22.528C66.512 22.08 66.584 21.68 66.584 21.328C66.584 21.008 66.488 20.76 66.296 20.584C66.104 20.392 65.752 20.296 65.24 20.296C64.488 20.296 63.792 20.472 63.152 20.824C62.512 21.176 61.952 21.632 61.472 22.192C60.992 22.736 60.616 23.312 60.344 23.92C60.088 24.528 59.96 25.08 59.96 25.576C59.96 26.168 60.128 26.68 60.464 27.112C60.816 27.528 61.264 27.912 61.808 28.264C62.352 28.6 62.928 28.944 63.536 29.296C64.16 29.632 64.744 30.008 65.288 30.424C65.832 30.84 66.272 31.336 66.608 31.912C66.96 32.472 67.136 33.16 67.136 33.976C67.136 34.808 66.952 35.544 66.584 36.184C66.216 36.808 65.72 37.336 65.096 37.768C64.488 38.2 63.816 38.528 63.08 38.752C62.344 38.976 61.608 39.088 60.872 39.088ZM71.4592 38.056C70.4832 38.056 69.7472 37.784 69.2512 37.24C68.7712 36.712 68.5312 36.056 68.5312 35.272C68.5312 34.552 68.7072 33.792 69.0592 32.992C69.4272 32.192 69.9072 31.44 70.4992 30.736C71.1072 30.032 71.7712 29.464 72.4912 29.032C73.2112 28.584 73.9232 28.36 74.6272 28.36C74.9952 28.36 75.3312 28.456 75.6352 28.648C75.9552 28.84 76.1152 29.232 76.1152 29.824C76.1152 30.432 75.9312 31.008 75.5632 31.552C75.2112 32.08 74.7392 32.552 74.1472 32.968C73.5712 33.384 72.9312 33.728 72.2272 34C71.5392 34.256 70.8512 34.416 70.1632 34.48C70.1312 34.64 70.1072 34.792 70.0912 34.936C70.0752 35.08 70.0672 35.216 70.0672 35.344C70.0672 35.584 70.0912 35.824 70.1392 36.064C70.2032 36.304 70.3072 36.528 70.4512 36.736C70.5952 36.928 70.7872 37.08 71.0272 37.192C71.2832 37.304 71.5952 37.36 71.9632 37.36C72.6512 37.36 73.3312 37.168 74.0032 36.784C74.6752 36.384 75.2992 35.864 75.8752 35.224C76.4512 34.584 76.9392 33.88 77.3392 33.112L77.6272 33.328C77.1952 34.288 76.6432 35.12 75.9712 35.824C75.3152 36.528 74.5952 37.072 73.8112 37.456C73.0432 37.856 72.2592 38.056 71.4592 38.056ZM70.2832 34.024C70.7152 33.88 71.2032 33.672 71.7472 33.4C72.2912 33.112 72.8112 32.776 73.3072 32.392C73.8192 32.008 74.2352 31.584 74.5552 31.12C74.8912 30.656 75.0592 30.168 75.0592 29.656C75.0592 29.48 75.0272 29.344 74.9632 29.248C74.8992 29.152 74.7632 29.104 74.5552 29.104C74.1712 29.104 73.7632 29.256 73.3312 29.56C72.8992 29.848 72.4832 30.232 72.0832 30.712C71.6832 31.192 71.3232 31.72 71.0032 32.296C70.6832 32.872 70.4432 33.448 70.2832 34.024ZM78.8514 37.72C78.1634 37.72 77.6674 37.48 77.3634 37C77.0754 36.536 76.9314 35.952 76.9314 35.248C76.9314 34.48 77.0754 33.568 77.3634 32.512C77.6514 31.456 78.0274 30.344 78.4914 29.176C78.9714 28.008 79.4914 26.872 80.0514 25.768C80.6114 24.648 81.1714 23.632 81.7314 22.72C82.2914 21.808 82.8034 21.08 83.2674 20.536C83.7474 19.992 84.1234 19.72 84.3954 19.72C84.5714 19.72 84.7154 19.824 84.8274 20.032C84.9394 20.224 85.0274 20.464 85.0914 20.752C85.1554 21.024 85.1874 21.272 85.1874 21.496C85.1874 21.928 85.0754 22.496 84.8514 23.2C84.6434 23.888 84.3394 24.664 83.9394 25.528C83.5554 26.376 83.0914 27.24 82.5474 28.12C82.0194 28.984 81.4354 29.816 80.7954 30.616C80.1714 31.416 79.5074 32.104 78.8034 32.68C78.7074 33.112 78.6274 33.536 78.5634 33.952C78.5154 34.352 78.4914 34.736 78.4914 35.104C78.4914 35.728 78.5794 36.192 78.7554 36.496C78.9314 36.8 79.1954 36.952 79.5474 36.952C79.9794 36.952 80.4034 36.76 80.8194 36.376C81.2514 35.992 81.6514 35.512 82.0194 34.936C82.4034 34.344 82.7314 33.736 83.0034 33.112L83.3634 33.304C82.7234 34.664 82.0274 35.744 81.2754 36.544C80.5234 37.328 79.7154 37.72 78.8514 37.72ZM79.0194 31.864C79.5794 31.304 80.1234 30.664 80.6514 29.944C81.1794 29.208 81.6674 28.448 82.1154 27.664C82.5794 26.88 82.9874 26.12 83.3394 25.384C83.6914 24.648 83.9634 23.992 84.1554 23.416C84.3474 22.824 84.4434 22.368 84.4434 22.048C84.4434 21.888 84.4194 21.784 84.3714 21.736C84.3394 21.688 84.3074 21.664 84.2754 21.664C84.1474 21.664 83.9234 21.872 83.6034 22.288C83.2994 22.688 82.9394 23.232 82.5234 23.92C82.1074 24.608 81.6834 25.392 81.2514 26.272C80.8194 27.152 80.4034 28.072 80.0034 29.032C79.6194 29.992 79.2914 30.936 79.0194 31.864ZM82.2192 43.72C82.0592 43.72 81.8752 43.664 81.6672 43.552C81.4592 43.456 81.2832 43.256 81.1392 42.952C80.9792 42.648 80.8992 42.2 80.8992 41.608C80.8992 40.904 81.0192 39.984 81.2592 38.848C81.4992 37.728 81.8272 36.488 82.2432 35.128C82.6593 33.768 83.1393 32.376 83.6833 30.952C84.2273 29.512 84.8113 28.128 85.4353 26.8C86.0753 25.456 86.7233 24.256 87.3793 23.2C88.0513 22.128 88.7073 21.28 89.3473 20.656C89.9873 20.032 90.5953 19.72 91.1713 19.72C91.5073 19.72 91.7233 19.824 91.8193 20.032C91.9313 20.24 91.9873 20.488 91.9873 20.776C91.9873 21.464 91.7953 22.216 91.4113 23.032C91.0433 23.848 90.5473 24.672 89.9233 25.504C89.2993 26.32 88.6113 27.104 87.8593 27.856C87.1073 28.592 86.3473 29.224 85.5793 29.752C85.4993 29.944 85.4193 30.144 85.3393 30.352C85.2753 30.544 85.2033 30.744 85.1233 30.952C85.2993 30.984 85.4353 31.08 85.5312 31.24C85.6432 31.384 85.7072 31.544 85.7233 31.72C85.8353 32.44 85.9553 33.088 86.0833 33.664C86.2113 34.224 86.4033 34.664 86.6593 34.984C86.9313 35.304 87.3153 35.464 87.8113 35.464C88.3713 35.464 88.8433 35.264 89.2273 34.864C89.6113 34.448 90.0273 33.864 90.4753 33.112L90.8353 33.352C90.4353 34.312 89.9233 35.008 89.2993 35.44C88.6913 35.872 88.1553 36.088 87.6913 36.088C87.4033 36.088 87.0993 36.016 86.7793 35.872C86.4753 35.728 86.1873 35.536 85.9153 35.296C85.9153 36.304 85.8033 37.304 85.5793 38.296C85.3713 39.288 85.0913 40.192 84.7393 41.008C84.3873 41.824 83.9953 42.48 83.5633 42.976C83.1313 43.472 82.6833 43.72 82.2192 43.72ZM82.8433 42.568C83.0193 42.568 83.2193 42.408 83.4433 42.088C83.6673 41.768 83.8833 41.344 84.0913 40.816C84.3153 40.304 84.5153 39.736 84.6913 39.112C84.8673 38.488 85.0113 37.864 85.1233 37.24C85.2353 36.616 85.2913 36.056 85.2913 35.56C85.2913 35.064 85.2273 34.616 85.0993 34.216C84.9713 33.8 84.7633 33.312 84.4753 32.752C84.0753 33.952 83.7153 35.112 83.3953 36.232C83.0753 37.352 82.8273 38.36 82.6513 39.256C82.4753 40.152 82.3872 40.872 82.3872 41.416C82.3872 42.184 82.5393 42.568 82.8433 42.568ZM85.9633 28.768C87.0033 27.808 87.8993 26.848 88.6513 25.888C89.4193 24.912 90.0113 24.048 90.4273 23.296C90.8433 22.528 91.0513 21.984 91.0513 21.664C91.0513 21.44 90.9393 21.328 90.7153 21.328C90.2993 21.328 89.8273 21.672 89.2993 22.36C88.7713 23.032 88.2193 23.928 87.6433 25.048C87.0673 26.168 86.5073 27.408 85.9633 28.768ZM147.169 39.088C146.305 39.088 145.489 38.928 144.721 38.608C143.953 38.304 143.329 37.832 142.849 37.192C142.385 36.552 142.153 35.752 142.153 34.792C142.153 33.96 142.313 33.312 142.633 32.848C142.969 32.384 143.377 32.056 143.857 31.864C144.337 31.672 144.793 31.576 145.225 31.576C144.793 32.04 144.465 32.552 144.241 33.112C144.017 33.672 143.905 34.232 143.905 34.792C143.905 35.384 144.033 35.936 144.289 36.448C144.561 36.96 144.969 37.368 145.513 37.672C146.057 37.992 146.745 38.152 147.577 38.152C148.297 38.152 149.001 38.016 149.689 37.744C150.377 37.488 150.937 37.104 151.369 36.592C151.817 36.064 152.041 35.416 152.041 34.648C152.041 33.96 151.865 33.368 151.513 32.872C151.161 32.376 150.705 31.936 150.145 31.552C149.601 31.168 149.017 30.8 148.393 30.448C147.769 30.096 147.177 29.728 146.617 29.344C146.073 28.944 145.625 28.488 145.273 27.976C144.921 27.464 144.745 26.848 144.745 26.128C144.745 25.456 144.905 24.752 145.225 24.016C145.545 23.28 146.001 22.584 146.593 21.928C147.201 21.272 147.921 20.744 148.753 20.344C149.601 19.928 150.545 19.72 151.585 19.72C152.529 19.72 153.185 19.952 153.553 20.416C153.921 20.864 154.105 21.432 154.105 22.12C154.105 22.696 154.001 23.32 153.793 23.992C153.601 24.648 153.361 25.28 153.073 25.888C152.785 26.48 152.513 26.984 152.257 27.4C151.969 27.336 151.761 27.216 151.633 27.04C151.521 26.848 151.465 26.624 151.465 26.368C151.465 26.032 151.537 25.648 151.681 25.216C151.825 24.784 151.985 24.336 152.161 23.872C152.353 23.408 152.521 22.96 152.665 22.528C152.809 22.08 152.881 21.68 152.881 21.328C152.881 21.008 152.785 20.76 152.593 20.584C152.401 20.392 152.049 20.296 151.537 20.296C150.785 20.296 150.089 20.472 149.449 20.824C148.809 21.176 148.249 21.632 147.769 22.192C147.289 22.736 146.913 23.312 146.641 23.92C146.385 24.528 146.257 25.08 146.257 25.576C146.257 26.168 146.425 26.68 146.761 27.112C147.113 27.528 147.561 27.912 148.105 28.264C148.649 28.6 149.225 28.944 149.833 29.296C150.457 29.632 151.041 30.008 151.585 30.424C152.129 30.84 152.569 31.336 152.905 31.912C153.257 32.472 153.433 33.16 153.433 33.976C153.433 34.808 153.249 35.544 152.881 36.184C152.513 36.808 152.017 37.336 151.393 37.768C150.785 38.2 150.113 38.528 149.377 38.752C148.641 38.976 147.905 39.088 147.169 39.088ZM153.652 43.72C153.524 43.72 153.404 43.648 153.292 43.504C153.164 43.376 153.068 43.232 153.004 43.072C152.94 42.928 152.908 42.84 152.908 42.808C153.132 42.024 153.356 41.32 153.58 40.696C153.788 40.088 154.004 39.456 154.228 38.8C154.436 38.16 154.644 37.408 154.852 36.544C155.06 35.664 155.276 34.576 155.5 33.28C155.724 31.984 155.948 30.376 156.172 28.456C156.188 28.312 156.22 28.208 156.268 28.144C156.316 28.08 156.436 28.048 156.628 28.048C157.044 28.048 157.34 28.168 157.516 28.408C157.692 28.632 157.78 28.88 157.78 29.152C157.78 29.376 157.732 29.776 157.636 30.352C157.54 30.928 157.404 31.608 157.228 32.392C157.5 31.864 157.836 31.328 158.236 30.784C158.652 30.24 159.124 29.784 159.652 29.416C160.18 29.048 160.756 28.864 161.38 28.864C162.084 28.864 162.66 29.12 163.108 29.632C163.572 30.128 163.804 30.784 163.804 31.6C163.804 32.224 163.66 32.888 163.372 33.592C163.1 34.28 162.708 34.936 162.196 35.56C161.7 36.168 161.108 36.664 160.42 37.048C159.732 37.432 158.972 37.624 158.14 37.624C157.724 37.624 157.388 37.576 157.132 37.48C156.876 37.384 156.748 37.288 156.748 37.192C156.748 37.128 156.804 37.088 156.916 37.072C157.044 37.072 157.188 37.072 157.348 37.072C157.988 37.072 158.596 36.92 159.172 36.616C159.764 36.296 160.292 35.88 160.756 35.368C161.22 34.856 161.58 34.288 161.836 33.664C162.108 33.04 162.244 32.424 162.244 31.816C162.244 31.304 162.132 30.872 161.908 30.52C161.7 30.152 161.356 29.968 160.876 29.968C160.46 29.968 160.044 30.104 159.628 30.376C159.228 30.632 158.844 30.968 158.476 31.384C158.124 31.784 157.804 32.208 157.516 32.656C157.244 33.088 157.036 33.48 156.892 33.832C156.604 35.032 156.316 36.184 156.028 37.288C155.74 38.408 155.46 39.416 155.188 40.312C154.932 41.224 154.7 41.968 154.492 42.544C154.268 43.12 154.084 43.472 153.94 43.6C153.86 43.68 153.764 43.72 153.652 43.72ZM165.691 38.128C165.195 38.128 164.779 37.96 164.443 37.624C164.091 37.304 163.915 36.808 163.915 36.136C163.915 35.56 164.043 34.944 164.299 34.288C164.555 33.616 164.907 32.96 165.355 32.32C165.803 31.664 166.307 31.072 166.867 30.544C167.443 30 168.043 29.568 168.667 29.248C169.307 28.928 169.939 28.768 170.563 28.768C171.187 28.768 171.707 28.936 172.123 29.272C172.539 29.592 172.747 30.024 172.747 30.568C172.747 30.968 172.635 31.24 172.411 31.384C172.203 31.528 171.923 31.6 171.571 31.6C171.603 31.472 171.627 31.336 171.643 31.192C171.675 31.032 171.691 30.888 171.691 30.76C171.691 30.392 171.603 30.08 171.427 29.824C171.251 29.552 170.947 29.416 170.515 29.416C170.067 29.416 169.611 29.576 169.147 29.896C168.683 30.2 168.235 30.616 167.803 31.144C167.371 31.656 166.987 32.216 166.651 32.824C166.315 33.432 166.051 34.032 165.859 34.624C165.667 35.216 165.571 35.744 165.571 36.208C165.571 36.832 165.787 37.144 166.219 37.144C166.587 37.144 166.987 36.976 167.419 36.64C167.851 36.288 168.291 35.848 168.739 35.32C169.203 34.776 169.643 34.216 170.059 33.64C170.475 33.064 170.843 32.536 171.163 32.056C171.227 31.96 171.267 31.912 171.283 31.912C171.379 31.928 171.499 31.96 171.643 32.008C171.803 32.056 171.939 32.12 172.051 32.2C172.163 32.28 172.219 32.384 172.219 32.512C172.219 32.656 172.147 32.856 172.003 33.112C171.859 33.352 171.699 33.632 171.523 33.952C171.347 34.272 171.187 34.6 171.043 34.936C170.899 35.256 170.827 35.56 170.827 35.848C170.827 36.088 170.891 36.328 171.019 36.568C171.147 36.792 171.355 36.904 171.643 36.904C172.075 36.904 172.643 36.592 173.347 35.968C174.051 35.328 174.763 34.376 175.483 33.112L175.723 33.352C175.387 34.216 174.955 34.976 174.427 35.632C173.899 36.288 173.331 36.8 172.723 37.168C172.131 37.536 171.547 37.72 170.971 37.72C170.379 37.72 169.939 37.544 169.651 37.192C169.379 36.84 169.243 36.456 169.243 36.04C169.243 35.944 169.251 35.84 169.267 35.728C169.283 35.6 169.299 35.472 169.315 35.344C168.627 36.272 167.995 36.968 167.419 37.432C166.859 37.896 166.283 38.128 165.691 38.128ZM177.56 38.344C176.792 38.344 176.152 38.088 175.64 37.576C175.128 37.064 174.872 36.296 174.872 35.272C174.872 34.472 175.024 33.696 175.328 32.944C175.648 32.176 176.064 31.488 176.576 30.88C177.088 30.272 177.656 29.792 178.28 29.44C178.904 29.072 179.52 28.888 180.128 28.888C180.784 28.888 181.232 29.08 181.472 29.464C181.712 29.848 181.832 30.248 181.832 30.664C181.832 31.128 181.72 31.536 181.496 31.888C181.288 32.24 181 32.416 180.632 32.416C180.36 32.416 180.128 32.296 179.936 32.056C180.176 31.928 180.384 31.672 180.56 31.288C180.736 30.888 180.824 30.512 180.824 30.16C180.824 29.968 180.784 29.824 180.704 29.728C180.64 29.616 180.504 29.56 180.296 29.56C179.864 29.56 179.416 29.752 178.952 30.136C178.504 30.52 178.08 31.016 177.68 31.624C177.296 32.232 176.976 32.872 176.72 33.544C176.48 34.216 176.36 34.848 176.36 35.44C176.36 35.936 176.48 36.392 176.72 36.808C176.96 37.224 177.424 37.432 178.112 37.432C178.752 37.432 179.392 37.256 180.032 36.904C180.688 36.552 181.296 36.048 181.856 35.392C182.416 34.736 182.864 33.968 183.2 33.088L183.512 33.328C183.144 34.288 182.64 35.152 182 35.92C181.36 36.672 180.656 37.264 179.888 37.696C179.12 38.128 178.344 38.344 177.56 38.344ZM185.342 38.056C184.366 38.056 183.63 37.784 183.134 37.24C182.654 36.712 182.414 36.056 182.414 35.272C182.414 34.552 182.59 33.792 182.942 32.992C183.31 32.192 183.79 31.44 184.382 30.736C184.99 30.032 185.654 29.464 186.374 29.032C187.094 28.584 187.806 28.36 188.51 28.36C188.878 28.36 189.214 28.456 189.518 28.648C189.838 28.84 189.998 29.232 189.998 29.824C189.998 30.432 189.814 31.008 189.446 31.552C189.094 32.08 188.622 32.552 188.03 32.968C187.454 33.384 186.814 33.728 186.11 34C185.422 34.256 184.734 34.416 184.046 34.48C184.014 34.64 183.99 34.792 183.974 34.936C183.958 35.08 183.95 35.216 183.95 35.344C183.95 35.584 183.974 35.824 184.022 36.064C184.086 36.304 184.19 36.528 184.334 36.736C184.478 36.928 184.67 37.08 184.91 37.192C185.166 37.304 185.478 37.36 185.846 37.36C186.534 37.36 187.214 37.168 187.886 36.784C188.558 36.384 189.182 35.864 189.758 35.224C190.334 34.584 190.822 33.88 191.222 33.112L191.51 33.328C191.078 34.288 190.526 35.12 189.854 35.824C189.198 36.528 188.478 37.072 187.694 37.456C186.926 37.856 186.142 38.056 185.342 38.056ZM184.166 34.024C184.598 33.88 185.086 33.672 185.63 33.4C186.174 33.112 186.694 32.776 187.19 32.392C187.702 32.008 188.118 31.584 188.438 31.12C188.774 30.656 188.942 30.168 188.942 29.656C188.942 29.48 188.91 29.344 188.846 29.248C188.782 29.152 188.646 29.104 188.438 29.104C188.054 29.104 187.646 29.256 187.214 29.56C186.782 29.848 186.366 30.232 185.966 30.712C185.566 31.192 185.206 31.72 184.886 32.296C184.566 32.872 184.326 33.448 184.166 34.024Z" fill="#348A9B"/>
<path d="M105.77 39.088C105.194 39.088 104.554 38.968 103.85 38.728C103.162 38.488 102.45 38.192 101.714 37.84C100.978 37.504 100.25 37.176 99.5302 36.856C99.1302 37.304 98.7142 37.648 98.2822 37.888C97.8502 38.144 97.3782 38.272 96.8662 38.272C96.3542 38.272 95.9222 38.152 95.5702 37.912C95.2022 37.672 94.9302 37.384 94.7542 37.048C94.5622 36.728 94.4662 36.44 94.4662 36.184C94.4662 35.896 94.6022 35.648 94.8742 35.44C95.1302 35.232 95.5782 35.128 96.2182 35.128C96.6342 35.128 97.0902 35.176 97.5862 35.272C98.0982 35.368 98.6262 35.488 99.1702 35.632C99.5542 34.96 99.9062 34.176 100.226 33.28C100.562 32.384 100.89 31.432 101.21 30.424C101.53 29.416 101.85 28.408 102.17 27.4C101.434 27.16 100.85 26.808 100.418 26.344C100.002 25.88 99.7942 25.376 99.7942 24.832C99.7942 24.544 99.8502 24.256 99.9622 23.968C100.09 23.68 100.266 23.44 100.49 23.248C100.714 23.04 100.978 22.936 101.282 22.936C101.17 23.096 101.09 23.328 101.042 23.632C100.994 23.936 100.97 24.2 100.97 24.424C100.97 25.032 101.098 25.544 101.354 25.96C101.61 26.36 101.938 26.672 102.338 26.896C102.658 25.936 102.986 25.032 103.322 24.184C103.674 23.32 104.058 22.552 104.474 21.88C104.89 21.208 105.346 20.68 105.842 20.296C106.338 19.912 106.89 19.72 107.498 19.72C107.818 19.72 108.154 19.792 108.506 19.936C108.874 20.08 109.186 20.328 109.442 20.68C109.698 21.032 109.826 21.528 109.826 22.168C109.826 22.712 109.714 23.304 109.49 23.944C109.266 24.568 108.922 25.168 108.458 25.744C107.994 26.304 107.402 26.768 106.682 27.136C105.962 27.488 105.114 27.672 104.138 27.688C104.122 27.688 104.082 27.688 104.018 27.688C103.97 27.688 103.858 27.688 103.682 27.688C103.362 28.664 103.018 29.656 102.65 30.664C102.298 31.672 101.922 32.632 101.522 33.544C101.122 34.44 100.69 35.24 100.226 35.944C100.962 36.168 101.706 36.4 102.458 36.64C103.21 36.864 103.938 37.048 104.642 37.192C105.346 37.352 105.994 37.432 106.586 37.432C106.922 37.432 107.226 37.4 107.498 37.336C107.77 37.272 108.034 37.176 108.29 37.048C108.034 37.784 107.69 38.304 107.258 38.608C106.842 38.928 106.346 39.088 105.77 39.088ZM96.7702 37.576C97.1222 37.576 97.4502 37.48 97.7542 37.288C98.0742 37.096 98.3622 36.824 98.6182 36.472C98.1222 36.264 97.6342 36.096 97.1542 35.968C96.6902 35.824 96.2662 35.752 95.8822 35.752C95.5782 35.752 95.3702 35.792 95.2582 35.872C95.1462 35.952 95.0902 36.064 95.0902 36.208C95.0902 36.48 95.2502 36.776 95.5702 37.096C95.8742 37.416 96.2742 37.576 96.7702 37.576ZM103.826 27.232C104.546 27.232 105.194 27.032 105.77 26.632C106.362 26.216 106.858 25.704 107.258 25.096C107.674 24.472 107.986 23.84 108.194 23.2C108.418 22.56 108.53 22 108.53 21.52C108.53 21.056 108.442 20.744 108.266 20.584C108.09 20.408 107.89 20.32 107.666 20.32C107.17 20.32 106.706 20.64 106.274 21.28C105.842 21.92 105.426 22.768 105.026 23.824C104.642 24.864 104.242 26 103.826 27.232ZM111.187 37.768C110.499 37.768 110.011 37.552 109.723 37.12C109.435 36.704 109.291 36.192 109.291 35.584C109.291 35.088 109.371 34.576 109.531 34.048C109.691 33.52 109.899 33.024 110.155 32.56C110.427 32.096 110.723 31.72 111.043 31.432C111.379 31.144 111.715 31 112.051 31C112.131 31 112.211 31.016 112.291 31.048C112.387 31.064 112.475 31.088 112.555 31.12C112.411 31.248 112.235 31.488 112.027 31.84C111.835 32.176 111.651 32.568 111.475 33.016C111.299 33.448 111.147 33.88 111.019 34.312C110.907 34.744 110.851 35.112 110.851 35.416C110.851 35.896 110.931 36.248 111.091 36.472C111.251 36.68 111.459 36.784 111.715 36.784C112.051 36.784 112.451 36.608 112.915 36.256C113.379 35.888 113.835 35.424 114.283 34.864C113.835 34.496 113.483 34.016 113.227 33.424C112.987 32.816 112.867 32.2 112.867 31.576C112.867 31.048 112.955 30.552 113.131 30.088C113.323 29.624 113.595 29.256 113.947 28.984C114.299 28.696 114.723 28.552 115.219 28.552C115.875 28.552 116.315 28.728 116.539 29.08C116.763 29.432 116.875 29.872 116.875 30.4C116.875 31.024 116.723 31.72 116.419 32.488C116.115 33.24 115.731 33.968 115.267 34.672C115.555 34.832 115.859 34.912 116.179 34.912C116.435 34.912 116.723 34.864 117.043 34.768C117.363 34.656 117.675 34.472 117.979 34.216C118.299 33.96 118.555 33.616 118.747 33.184L119.035 33.424C118.715 34.176 118.259 34.712 117.667 35.032C117.091 35.336 116.539 35.488 116.011 35.488C115.803 35.488 115.603 35.472 115.411 35.44C115.219 35.392 115.035 35.328 114.859 35.248C114.315 35.968 113.715 36.568 113.059 37.048C112.419 37.528 111.795 37.768 111.187 37.768ZM114.715 34.24C115.115 33.648 115.443 33.032 115.699 32.392C115.971 31.736 116.107 31.12 116.107 30.544C116.107 30.08 116.035 29.744 115.891 29.536C115.763 29.312 115.595 29.2 115.387 29.2C115.067 29.2 114.739 29.432 114.403 29.896C114.067 30.36 113.899 30.944 113.899 31.648C113.899 32.112 113.963 32.584 114.091 33.064C114.235 33.528 114.443 33.92 114.715 34.24ZM119.857 37.936C119.361 37.936 119.017 37.688 118.825 37.192C118.633 36.712 118.537 36.08 118.537 35.296C118.537 35.264 118.545 35.016 118.561 34.552C118.577 34.072 118.617 33.272 118.681 32.152C118.713 31.72 118.761 31.424 118.825 31.264C118.889 31.104 119.097 31.024 119.449 31.024C119.721 31.024 119.889 31.08 119.953 31.192C120.033 31.288 120.073 31.488 120.073 31.792C120.073 32.32 120.033 32.944 119.953 33.664C119.889 34.368 119.857 35.032 119.857 35.656C119.857 36.12 119.897 36.464 119.977 36.688C120.057 36.896 120.201 37 120.409 37C120.697 37 121.017 36.84 121.369 36.52C121.721 36.184 122.081 35.752 122.449 35.224C122.817 34.68 123.161 34.104 123.481 33.496C123.817 32.888 124.113 32.304 124.369 31.744C124.401 30.656 124.513 29.936 124.705 29.584C124.913 29.216 125.169 29.032 125.473 29.032C125.777 29.032 125.993 29.144 126.121 29.368C126.265 29.576 126.337 29.768 126.337 29.944C126.337 30.152 126.265 30.368 126.121 30.592C125.993 30.816 125.857 31.12 125.713 31.504C125.569 31.888 125.497 32.44 125.497 33.16C125.497 33.416 125.521 33.688 125.569 33.976C125.617 34.264 125.721 34.504 125.881 34.696C126.041 34.888 126.289 34.984 126.625 34.984C126.961 34.984 127.281 34.856 127.585 34.6C127.905 34.328 128.217 33.864 128.521 33.208L128.833 33.448C128.481 34.248 128.089 34.784 127.657 35.056C127.241 35.328 126.841 35.464 126.457 35.464C125.929 35.464 125.489 35.272 125.137 34.888C124.785 34.504 124.553 33.92 124.441 33.136C124.057 33.92 123.601 34.68 123.073 35.416C122.561 36.136 122.025 36.736 121.465 37.216C120.905 37.696 120.369 37.936 119.857 37.936ZM130.662 38.056C129.686 38.056 128.95 37.784 128.454 37.24C127.974 36.712 127.734 36.056 127.734 35.272C127.734 34.552 127.91 33.792 128.262 32.992C128.63 32.192 129.11 31.44 129.702 30.736C130.31 30.032 130.974 29.464 131.694 29.032C132.414 28.584 133.126 28.36 133.83 28.36C134.198 28.36 134.534 28.456 134.838 28.648C135.158 28.84 135.318 29.232 135.318 29.824C135.318 30.432 135.134 31.008 134.766 31.552C134.414 32.08 133.942 32.552 133.35 32.968C132.774 33.384 132.134 33.728 131.43 34C130.742 34.256 130.054 34.416 129.366 34.48C129.334 34.64 129.31 34.792 129.294 34.936C129.278 35.08 129.27 35.216 129.27 35.344C129.27 35.584 129.294 35.824 129.342 36.064C129.406 36.304 129.51 36.528 129.654 36.736C129.798 36.928 129.99 37.08 130.23 37.192C130.486 37.304 130.798 37.36 131.166 37.36C131.854 37.36 132.534 37.168 133.206 36.784C133.878 36.384 134.502 35.864 135.078 35.224C135.654 34.584 136.142 33.88 136.542 33.112L136.83 33.328C136.398 34.288 135.846 35.12 135.174 35.824C134.518 36.528 133.798 37.072 133.014 37.456C132.246 37.856 131.462 38.056 130.662 38.056ZM129.486 34.024C129.918 33.88 130.406 33.672 130.95 33.4C131.494 33.112 132.014 32.776 132.51 32.392C133.022 32.008 133.438 31.584 133.758 31.12C134.094 30.656 134.262 30.168 134.262 29.656C134.262 29.48 134.23 29.344 134.166 29.248C134.102 29.152 133.966 29.104 133.758 29.104C133.374 29.104 132.966 29.256 132.534 29.56C132.102 29.848 131.686 30.232 131.286 30.712C130.886 31.192 130.526 31.72 130.206 32.296C129.886 32.872 129.646 33.448 129.486 34.024Z" fill="#CC475C"/>
<path d="M29.7335 27.0403C29.6155 27.4997 29.5368 28.0358 29.4975 28.5335C29.4582 28.9929 29.5368 29.5289 29.5762 29.5289C29.6548 29.6438 29.8908 29.8352 30.0875 30.0267L30.7167 30.601C31.1494 30.9838 31.582 31.405 31.9753 31.8644C32.3686 32.3239 32.7619 32.8599 33.0372 33.5108C33.1552 33.8171 33.2732 34.1999 33.2732 34.5828C33.3125 34.7742 33.2339 34.9657 33.2339 35.1954C33.1946 35.3868 33.1159 35.54 33.0766 35.7314C32.8012 36.344 32.4866 36.8034 32.2506 37.3012C31.9753 37.7606 31.7393 38.2583 31.5427 38.7178C31.1494 39.675 30.9134 40.6704 30.8741 41.7042C30.7954 42.7379 31.0707 43.7716 31.346 44.7671L31.6213 45.4946C31.7393 45.7243 31.7787 45.9923 31.936 46.222C32.2113 46.6814 32.4079 47.1792 32.6833 47.6386L33.5879 49.0169L34.6104 50.3187C37.4422 53.8028 40.3527 57.2486 42.9878 60.9241C44.2857 62.7619 45.5443 64.638 46.5669 66.6289C47.6288 68.6198 48.494 70.6873 49.1233 72.8313C48.3761 70.7256 47.4715 68.6964 46.3309 66.7437C45.2296 64.7911 43.9317 62.9916 42.5552 61.1922C39.802 57.6315 36.7736 54.3388 33.8238 50.9313L32.7226 49.5912L31.7393 48.1746C31.4247 47.6769 31.1494 47.1792 30.8741 46.6814C30.7167 46.4517 30.6381 46.1454 30.5201 45.8774L30.1661 45.0734C29.8121 43.9631 29.4975 42.8145 29.4975 41.5893C29.4975 40.4024 29.7335 39.1772 30.1661 38.0669C30.3628 37.5309 30.6381 36.9949 30.9134 36.4589C31.1887 35.9611 31.464 35.4634 31.6213 35.0422C31.6607 34.9657 31.7 34.8508 31.7 34.7742C31.7 34.6977 31.7393 34.6211 31.7 34.5445C31.7 34.3914 31.6607 34.1999 31.5427 34.0085C31.3854 33.6256 31.0707 33.2428 30.7167 32.8599C30.3628 32.477 29.9695 32.1324 29.5368 31.7879L28.8682 31.2518C28.6322 31.0604 28.4356 30.869 28.1603 30.5627C28.0816 30.4478 28.0029 30.3713 27.9636 30.2564C27.885 30.1415 27.8456 30.0267 27.8063 29.9118C27.7276 29.6821 27.6883 29.5289 27.649 29.3375C27.5703 29.0695 27.5703 28.7632 27.5703 28.4569C27.6096 27.806 27.649 27.27 27.8063 26.6191L29.7335 27.0403Z" fill="#454545"/>
<path d="M36.9312 22.7905C37.2851 22.982 37.5604 23.1351 37.8751 23.3648C38.1897 23.5946 38.465 23.8243 38.7797 24.2071C38.937 24.3986 39.055 24.6283 39.173 24.9346C39.2123 25.0877 39.2516 25.2792 39.2516 25.4323C39.2516 25.5089 39.2516 25.6238 39.2123 25.7003C39.2123 25.7386 39.2123 25.7769 39.173 25.7769V25.8535C39.0943 26.1981 38.9763 26.5044 38.8977 26.7341C38.7404 27.2701 38.7404 27.6912 38.8583 28.1507C38.8977 28.2655 38.937 28.3804 38.9763 28.4953C38.9763 28.5718 39.0157 28.6101 39.055 28.6867C39.0943 28.725 39.0943 28.8016 39.1337 28.8398C39.2123 28.993 39.4483 29.261 39.6056 29.4907C40.4316 30.4862 41.2575 31.6348 41.7295 32.8983C42.2408 34.1617 42.4767 35.54 42.4374 36.8801C42.3981 38.2201 42.1228 39.5219 41.6901 40.7471C41.2575 41.9722 40.7069 43.1591 40.0383 44.2694C39.3696 45.3798 38.6617 46.4518 37.8751 47.4855L36.6952 48.9787C36.3019 49.4764 35.9086 49.9742 35.5546 50.4719C32.5655 54.492 30.2057 58.9716 28.2785 63.6043C27.3346 65.9398 26.4693 68.2753 25.7613 70.6874C25.0534 73.0994 24.4241 75.5115 23.9521 78.0001C24.3061 75.5115 24.8567 73.0611 25.5254 70.6491C26.1546 68.237 26.9413 65.8249 27.8065 63.4511C28.7111 61.0774 29.6944 58.7801 30.835 56.5212C31.9755 54.2623 33.2734 52.08 34.7287 49.9742C35.0826 49.4382 35.4759 48.9404 35.8299 48.4044L36.9312 46.8729C37.6391 45.8392 38.3077 44.8055 38.8977 43.7334C39.4876 42.6614 39.9596 41.5128 40.3529 40.3642C40.7069 39.2156 40.9429 38.0287 40.9429 36.8801C40.9429 35.7315 40.7069 34.5829 40.2349 33.5108C39.7629 32.4388 39.0943 31.5199 38.2291 30.601C38.0324 30.333 37.7964 30.1416 37.5604 29.7587C37.4818 29.6439 37.4425 29.5673 37.4031 29.4907C37.3638 29.4141 37.3245 29.3376 37.2851 29.2227C37.2065 29.0313 37.1278 28.8781 37.0885 28.6867C36.8525 27.9592 36.8918 27.0787 37.0491 26.3895C37.1278 26.0449 37.2065 25.7386 37.2851 25.4706V25.4323C37.2851 25.4706 37.2851 25.4706 37.2851 25.4706C37.2851 25.4706 37.2458 25.4323 37.2065 25.3557C36.9705 25.0877 36.4199 24.7432 35.9872 24.5134L36.9312 22.7905Z" fill="#454545"/>
<path d="M28.2785 24.5897C28.2785 24.5897 28.2392 24.5897 28.1998 24.5897L28.0819 24.628C28.0032 24.6663 27.8852 24.7046 27.8065 24.7046C27.6099 24.7812 27.4526 24.8577 27.2559 24.9726C26.9019 25.164 26.6266 25.432 26.3513 25.7383C26.076 26.0446 25.9187 26.3509 25.722 26.8104C25.5254 27.2315 25.3681 27.691 25.1714 28.1504C24.8174 29.0693 24.4635 29.9882 23.9915 30.907C23.7555 31.3665 23.5195 31.8259 23.2442 32.2471C22.9689 32.6682 22.6543 33.1277 22.261 33.5106C21.5137 34.238 20.7271 34.8506 19.9405 35.4632C19.1539 36.0758 18.3673 36.6501 17.5413 37.2244C16.7547 37.7987 15.9681 38.4113 15.1815 39.0239C14.3949 39.6364 13.6476 40.249 12.979 40.9765C13.569 40.2107 14.2769 39.5216 15.0242 38.8324C15.7321 38.1433 16.4794 37.4924 17.2267 36.8415C17.974 36.1906 18.7212 35.5398 19.4292 34.8889C20.1371 34.238 20.8844 33.5488 21.4744 32.8597C21.7497 32.5151 22.025 32.1322 22.2216 31.7111C22.4576 31.2899 22.6149 30.8688 22.8116 30.4476C23.1656 29.567 23.4409 28.6481 23.7162 27.7292C23.8735 27.2698 23.9915 26.7721 24.1881 26.3126C24.3455 25.8532 24.5815 25.2789 24.9354 24.8194C25.2894 24.3217 25.6827 23.9006 26.194 23.556C26.43 23.4028 26.7053 23.2497 26.9806 23.0965C27.0986 23.02 27.2559 22.9817 27.4132 22.9051L27.6492 22.8285C27.7279 22.7902 27.8065 22.7902 27.9245 22.752L28.2785 24.5897Z" fill="#454545"/>
<path d="M35.1221 18.7318C35.3974 18.7318 35.7514 18.6552 36.066 18.6169C36.3806 18.5404 36.7346 18.4638 37.0493 18.3872C37.7179 18.1958 38.3472 18.0044 38.9764 17.7363C40.235 17.2003 41.4149 16.4729 42.4375 15.554C43.4994 14.6351 44.4434 13.6014 45.348 12.4911C45.8199 11.955 46.2526 11.3807 46.7638 10.8447C47.2751 10.3087 47.8258 9.84926 48.4944 9.54297C47.2751 10.3087 46.5672 11.6105 45.7806 12.7591C44.994 13.946 44.168 15.1328 43.1848 16.2049C42.2015 17.3152 40.9823 18.2724 39.6844 18.9998C39.0158 19.3827 38.3472 19.689 37.6392 19.957C37.2852 20.1101 36.9313 20.225 36.538 20.3399C36.1447 20.4547 35.83 20.5313 35.3581 20.6461L35.1221 18.7318Z" fill="#454545"/>
<path d="M48.8877 9.1221C49.1237 8.66266 49.5563 8.35636 50.0283 8.08836C50.5002 7.82035 51.0115 7.62891 51.5228 7.51405C52.0341 7.39919 52.5847 7.36091 53.1354 7.36091C53.6467 7.36091 54.158 7.36091 54.6299 7.39919C55.6132 7.39919 56.5571 7.43748 57.4224 7.28433C57.855 7.24605 58.2483 7.13119 58.6023 6.97804C58.9169 6.82489 59.1529 6.63346 59.3496 6.40374C59.3889 6.32716 59.4282 6.28887 59.4676 6.2123C59.5069 6.13573 59.5069 6.05915 59.5462 5.98258C59.6249 5.82943 59.6249 5.638 59.6642 5.48485C59.7429 5.14027 59.6642 4.87226 59.5855 4.71911C59.5069 4.56597 59.2709 4.37453 58.9169 4.25967C58.563 4.14481 58.1303 4.10653 57.6977 4.06824C57.2651 4.06824 56.7931 4.06824 56.3605 4.14481C56.1245 4.1831 55.9278 4.22139 55.7312 4.25967C55.6132 4.29796 55.6132 4.29796 55.4952 4.37453L55.1805 4.56597C54.3153 5.02541 53.4893 5.56142 52.5847 6.02087C53.214 5.21684 53.8826 4.48939 54.5906 3.80023C54.6693 3.72366 54.7872 3.6088 54.8659 3.53222C54.9446 3.45565 55.1412 3.34079 55.2592 3.26422C55.5345 3.11107 55.7705 3.03449 56.0458 2.91963C56.5571 2.7282 57.1077 2.61334 57.6584 2.53677C58.209 2.46019 58.7989 2.46019 59.3889 2.57505C59.9788 2.68991 60.7261 2.99621 61.1588 3.64708C61.3947 3.95338 61.5127 4.33625 61.5914 4.68083C61.6701 5.02541 61.6701 5.36999 61.6307 5.67629L61.5521 6.13573C61.5521 6.28887 61.4734 6.44202 61.4341 6.59517C61.3947 6.74832 61.3161 6.90146 61.2374 7.05461C61.1588 7.20776 61.0801 7.36091 60.9621 7.47577C60.5688 8.01178 59.9788 8.47122 59.3889 8.70095C58.7989 8.93067 58.209 9.04553 57.6584 9.08381C56.5571 9.16039 55.4952 9.04553 54.5119 8.89238C54.0006 8.81581 53.5287 8.70094 53.0174 8.62437C52.5454 8.5478 52.1128 8.47122 51.6408 8.47122C50.6969 8.43294 49.7136 8.5478 48.8877 9.1221Z" fill="#C5505F"/>
<path d="M53.9609 4.22131C53.9609 3.64701 53.9216 3.11099 53.7643 2.68983C53.6856 2.46011 53.5676 2.30697 53.489 2.19211C53.4103 2.15382 53.371 2.07725 53.2923 2.03896C53.253 2.00067 53.2137 2.00067 53.2137 1.96239C53.1743 1.96239 53.135 1.9241 53.0957 1.9241C52.8204 1.80924 52.3484 1.77095 52.0338 1.80924C51.6798 1.84752 51.5225 1.96239 51.3258 2.15382C51.1292 2.34525 50.9718 2.68983 50.9325 3.0727C50.9325 3.14928 50.8932 3.26414 50.8932 3.34071C50.8932 3.379 50.8932 3.41728 50.8932 3.45557V3.53214V3.60872L50.9718 4.37445C51.0112 4.87218 51.1292 5.48477 51.0505 6.05908C50.9718 6.63338 50.8145 7.16939 50.5392 7.70541C50.3819 7.16939 50.2639 6.63338 50.1066 6.17394C49.9493 5.71449 49.7133 5.29334 49.5166 4.75732C49.3986 4.48932 49.32 4.22131 49.2413 3.9533L49.202 3.83844L49.1626 3.72358C49.1233 3.64701 49.1233 3.53215 49.1233 3.45557C49.084 3.26414 49.084 3.11099 49.084 2.91956C49.084 2.57497 49.1626 2.23039 49.2806 1.88581C49.3986 1.54123 49.5953 1.23494 49.8706 0.928641C50.1459 0.622346 50.4605 0.392625 50.8538 0.201191C51.2472 0.0480436 51.6405 -0.02853 52.0338 0.00975679H52.3091C52.3877 0.00975679 52.4664 0.0480436 52.5844 0.0480436C52.663 0.0480436 52.7417 0.0863304 52.8597 0.0863304L53.0957 0.162904C53.253 0.239478 53.4103 0.277765 53.607 0.354338C53.7643 0.430912 53.9216 0.545772 54.0789 0.660633C54.1576 0.737207 54.2363 0.775493 54.2756 0.852067L54.4722 1.08179C54.5902 1.23494 54.6689 1.42637 54.7476 1.57952C54.8655 1.9241 54.9049 2.26868 54.8262 2.61326C54.7869 2.91956 54.6689 3.22585 54.5509 3.49386C54.3149 3.80015 54.1576 4.02987 53.9609 4.22131Z" fill="#C5505F"/>
<path d="M28.7896 22.178C28.8289 22.0248 28.8289 21.7568 28.8682 21.4888C28.8682 21.2591 28.8682 20.9911 28.8682 20.7614C28.8289 20.2637 28.7896 19.7659 28.6716 19.2682C28.5536 18.7705 28.4356 18.2727 28.2389 17.775C28.0423 17.2773 27.8063 16.8178 27.5703 16.3584C27.9636 16.7413 28.3569 17.1241 28.6716 17.5453C29.0255 17.9664 29.3402 18.4259 29.6155 18.9236C29.8908 19.4213 30.1268 19.9191 30.3234 20.4551C30.4414 20.7231 30.5201 20.9911 30.5987 21.2591C30.6774 21.5654 30.7561 21.7951 30.7954 22.178H28.7896Z" fill="#454545"/>
<path d="M32.3299 21.7951C32.2119 21.7185 32.1726 21.642 32.0939 21.6037C32.0546 21.5271 31.9759 21.4888 31.9366 21.4122C31.8186 21.2591 31.7399 21.1442 31.6613 20.9911C31.504 20.6848 31.4253 20.3402 31.4253 20.0339C31.4253 19.7276 31.4646 19.4979 31.504 19.2299C31.5433 18.9619 31.6219 18.7322 31.7006 18.5024C31.7793 18.7322 31.8973 18.9619 31.9759 19.1916C32.0939 19.4213 32.2119 19.6128 32.3299 19.7659C32.4479 19.9191 32.6052 19.9956 32.7625 20.0722C32.8412 20.1105 32.9198 20.1488 32.9985 20.1488C33.0378 20.1488 33.0772 20.1488 33.1165 20.1871C33.1558 20.1871 33.1952 20.1871 33.1952 20.1871L32.3299 21.7951Z" fill="#454545"/>
<path d="M30.7955 16.7795C31.2675 15.7841 31.8575 14.8652 31.9754 14.0612C32.0541 13.64 32.0148 13.2954 31.9361 12.9126C31.8575 12.5297 31.7001 12.1085 31.5035 11.6874C31.1102 10.8451 30.6382 9.96448 30.1663 9.08389C29.655 8.20329 29.1043 7.36098 28.5537 6.40381C29.655 6.74839 30.5989 7.39927 31.3855 8.165C32.1721 8.96903 32.8407 9.88791 33.3127 10.9217C33.5487 11.4577 33.7453 12.032 33.7846 12.6828C33.824 13.2954 33.7453 14.0229 33.4307 14.5972C33.1554 15.1715 32.7227 15.6309 32.2508 15.9755C31.8181 16.2818 31.3068 16.5498 30.7955 16.7795Z" fill="#454545"/>
<path d="M12.4679 41.8574C12.4679 42.2786 12.3499 42.6997 12.1139 43.0443C11.9959 43.2357 11.8386 43.3889 11.6813 43.542C11.6026 43.6186 11.5239 43.6952 11.406 43.7718C11.3273 43.8483 11.2093 43.9249 11.1306 43.9632C10.7373 44.1929 10.344 44.4992 9.9114 44.4609C9.47877 44.4226 9.00681 44.2695 8.65283 43.8483V43.6952C8.84948 43.4655 9.0068 43.3506 9.20346 43.2357C9.36078 43.1209 9.5181 43.006 9.67542 42.9677C9.83274 42.8912 9.99006 42.8912 10.1474 42.8912C10.3047 42.8912 10.5014 42.8912 10.6587 42.8912C10.9733 42.8146 11.288 42.738 11.5633 42.5466C11.8386 42.3934 12.1139 42.1637 12.3499 41.8574H12.4679Z" fill="#348A9B"/>
<path d="M9.91123 33.0513C9.91123 33.4724 9.79324 33.8936 9.55726 34.2382C9.43927 34.4296 9.28195 34.5827 9.12463 34.7359C9.04597 34.8125 8.96731 34.889 8.84931 34.9656C8.77065 35.0422 8.65266 35.1188 8.574 35.157C8.1807 35.3868 7.7874 35.6931 7.35476 35.6548C6.92213 35.6165 6.45016 35.4633 6.09619 35.0422V34.889C6.29284 34.6593 6.45016 34.5445 6.64682 34.4296C6.80414 34.3147 6.96146 34.1999 7.11878 34.1616C7.2761 34.085 7.43342 34.085 7.59074 34.085C7.74807 34.085 7.94472 34.085 8.10204 34.085C8.41668 34.0084 8.73132 33.9319 9.00664 33.7404C9.28195 33.5873 9.55726 33.3576 9.79324 33.0513H9.91123Z" fill="#348A9B"/>
<path d="M12.625 27.3848C12.1531 28.2654 11.9958 29.2608 12.2711 30.1031C12.3891 30.5243 12.5857 30.9072 12.861 31.29C13.1757 31.7112 13.4116 32.2089 13.569 32.7449C13.7263 33.2809 13.8049 33.817 13.8049 34.3913C13.7656 34.9656 13.6083 35.5399 13.3723 36.0376C13.1363 36.5736 12.7824 37.033 12.3891 37.4159C11.9957 37.8371 11.6024 38.1434 11.0912 38.4879C10.5799 38.7942 10.1079 39.024 9.55727 39.1771C9.00665 39.3303 8.41669 39.4451 7.82674 39.4451C7.23678 39.4451 6.60749 39.292 6.0962 39.0622C5.54558 38.8325 5.11294 38.4879 4.68031 38.1434C4.28701 37.7605 3.93303 37.3776 3.61839 36.9948C3.34308 36.6119 3.02843 36.3056 2.67446 35.9993C1.96652 35.425 1.02259 35.0421 0 35.0038C0.983258 34.6976 2.12384 34.889 3.06777 35.3484C3.53973 35.5781 3.97236 35.961 4.36567 36.3056C4.71964 36.6502 5.07361 36.9565 5.46692 37.2245C6.21419 37.7605 7.0008 38.0668 7.78741 38.0285C8.18071 38.0285 8.61334 37.9136 9.00665 37.7605C9.39995 37.6073 9.83258 37.4159 10.1866 37.2245C10.8945 36.7268 11.6024 36.1142 11.9957 35.425C12.3891 34.7358 12.5464 33.8935 12.3497 33.0512C12.2711 32.6301 12.1137 32.2089 11.9564 31.7878C11.7204 31.3283 11.5238 30.7923 11.4845 30.2563C11.4451 29.1077 11.8778 28.0356 12.625 27.3848Z" fill="#348A9B"/>
<path d="M8 35C8 35 12.0833 38.4783 10.7222 43" stroke="#348A9B" stroke-miterlimit="10"/>
</svg>
