<svg width="145" height="145" viewBox="0 0 145 145" fill="none" xmlns="http://www.w3.org/2000/svg">
<path d="M10.0385 132.73L10.1995 131.626C10.1995 131.153 17.7673 80.2304 61.7252 73.6089C17.1233 66.1991 10.3605 14.8034 10.1995 14.3305L10.0385 13.3845L11.0046 13.5422C58.0218 19.5331 68.1659 51.8524 68.3269 52.1677L68.649 53.1137H67.6829C30.8098 55.7938 25.4962 31.9879 25.4962 31.6725L27.1064 31.3572C27.2674 32.3032 32.0979 53.5866 66.5558 51.5371C64.4625 46.3345 52.5472 20.6367 11.9706 14.9611C13.2588 22.6862 23.2419 71.717 71.2252 72.8206C71.3863 72.8206 71.3863 72.8206 71.5473 72.8206C71.7083 71.717 71.8693 70.6134 72.0303 69.5098C79.4372 13.0692 134.022 13.5422 134.666 13.5422H135.632L135.471 14.3305C135.471 14.9611 128.387 67.4603 82.4965 73.9242C125.488 81.334 135.471 130.995 135.471 131.626L135.632 132.572H134.666C134.183 132.572 92.6407 133.991 74.2846 93.7888L75.7338 93.1581C91.9966 129.104 127.26 130.995 133.539 130.995C131.768 123.743 118.887 75.6584 72.8354 74.5548C64.9455 121.536 36.4454 127.369 17.4453 131.153C15.191 131.626 13.0978 132.099 11.1655 132.414L10.0385 132.73ZM71.2252 74.5548C24.369 74.5548 13.4198 122.64 11.9706 130.68C13.5808 130.365 15.352 129.892 17.1232 129.577C36.7674 125.635 63.4964 120.275 71.2252 74.5548ZM133.7 15.1187C126.616 15.2764 80.2422 18.7448 73.6405 69.8251C73.4795 70.9287 73.3185 72.0323 73.1575 72.9782C122.429 72.8206 132.573 22.5285 133.7 15.1187Z" fill="#454545" stroke="#003941" stroke-width="2" stroke-miterlimit="10"/>
</svg>
