<svg width="145" height="145" viewBox="0 0 145 145" fill="none" xmlns="http://www.w3.org/2000/svg">
<path d="M7.59985 99.4V97.9149C8.06983 97.9149 53.6573 97.1724 66.1899 74.6L67.5999 75.194C54.5972 98.509 9.47975 99.4 7.59985 99.4Z" fill="#454545" stroke="#003941" stroke-width="2" stroke-miterlimit="10"/>
<path d="M74.6155 63.3059C80.1877 54.3595 82.9738 44.9503 82.9738 34.9242C82.9738 24.7438 80.0329 15.1804 74.306 6.07974L73.6869 5L73.0677 6.07974C67.3408 15.1804 64.3999 24.7438 64.3999 34.9242C64.3999 43.0993 66.2573 50.966 70.1269 58.3699C71.0556 60.2209 71.9842 61.9176 73.2225 63.6144L73.8416 64.5399C98.9164 95.698 135.136 99.4 135.445 99.4L135.6 97.8575C135.136 98.166 99.226 94.3098 74.6155 63.3059ZM71.3651 57.9072C67.6503 50.6575 65.7929 42.9451 65.7929 35.0784C65.7929 25.6693 68.4243 16.5686 73.6869 8.08497C78.9495 16.5686 81.5808 25.6693 81.5808 35.0784C81.5808 44.4876 78.9495 53.5882 73.6869 62.0719C72.9129 60.6837 72.139 59.2954 71.3651 57.9072Z" fill="#454545" stroke="#003941" stroke-width="2" stroke-miterlimit="10"/>
<path d="M41.7407 139.245C40.8093 139.245 39.7226 139.245 38.6359 139.245C22.6465 138.78 3.55237 118.939 2.77619 118.009L2 117.234L5.88093 115.684C20.1627 109.793 25.4408 107.468 40.0331 108.398C50.2787 109.018 56.9539 114.754 63.9396 120.799C66.8891 123.279 69.8386 125.914 73.4091 128.394C75.2719 126.999 77.29 125.294 79.308 123.589C87.5356 116.459 97.9365 107.623 115.168 108.553C136.435 109.793 142.334 117.079 142.49 117.389L142.8 117.854L142.49 118.319C141.869 119.249 125.569 139.4 105.233 139.4C90.6404 139.4 81.0157 135.37 73.4091 130.254C64.2501 136.765 55.5568 139.245 41.7407 139.245ZM4.63903 117.854C8.36472 121.574 24.9751 137.385 38.6359 137.695C53.6939 138.005 62.6977 135.835 72.0119 129.324C68.5967 126.999 65.6472 124.364 62.8529 122.039C55.712 115.994 49.6578 110.723 39.8778 110.103C25.7513 109.173 20.4732 111.344 6.34662 117.234L4.63903 117.854ZM74.6509 129.169C81.9471 133.975 91.2613 137.695 105.077 137.695C122.93 137.695 137.988 120.954 140.782 117.699C139.074 116.149 132.399 110.878 115.013 109.948C98.4022 109.018 88.6223 117.389 80.2395 124.674C78.3766 126.224 76.5138 127.774 74.6509 129.169Z" fill="#454545" stroke="#003941" stroke-width="2" stroke-miterlimit="10"/>
</svg>
