<svg width="145" height="145" viewBox="0 0 145 145" fill="none" xmlns="http://www.w3.org/2000/svg">
<g clip-path="url(#clip0_502_538)">
<path d="M73.2424 58.1712C87.0583 38.4879 73.3942 13.0701 73.2424 12.9152L72.6351 13.2251L72.0278 12.9152C71.876 13.2251 58.5155 38.1779 71.7241 57.7062C58.2118 76.3046 21.3188 82.969 20.8633 82.969L21.1669 84.5189C22.6852 84.2089 59.5782 77.6995 73.2424 58.1712ZM72.6351 56.3114C62.1593 40.1928 70.2059 20.1995 72.6351 14.93C75.0642 20.1995 83.1109 40.1928 72.6351 56.3114Z" fill="#454545" stroke="#003941" stroke-width="2" stroke-miterlimit="10"/>
<path d="M21.3704 62.5295L21.0668 64.0794C21.3704 64.0794 58.4153 70.7438 71.9276 89.3422C58.719 108.87 72.0795 133.978 72.2313 134.133L72.8386 133.823L73.4458 134.133C73.5977 133.823 87.11 108.406 73.4458 88.8772C59.7817 69.3489 22.8887 62.8395 21.3704 62.5295ZM72.8386 132.118C70.4094 126.849 62.3627 106.856 72.8386 90.7371C83.3144 106.856 75.2677 126.849 72.8386 132.118Z" fill="#454545" stroke="#003941" stroke-width="2" stroke-miterlimit="10"/>
<path d="M124.61 64.0794L124.306 62.5295C122.94 62.8395 94.3972 67.7991 78.1521 82.2128C78.4557 82.6778 78.7594 83.1427 78.9112 83.6077C94.8527 69.3489 124.306 64.0794 124.61 64.0794Z" fill="#454545" stroke="#003941" stroke-width="2" stroke-miterlimit="10"/>
<path d="M124.407 82.9689L124.103 84.5188C122.737 84.2088 94.194 79.2492 77.9489 64.8355C78.2525 64.3705 78.5561 63.9056 78.708 63.4406C94.6494 77.6994 124.103 82.9689 124.407 82.9689Z" fill="#454545" stroke="#003941" stroke-width="2" stroke-miterlimit="10"/>
<path d="M37.1825 13.0373L37.4501 13.2195L37.7259 13.0498C47.9745 6.74173 60.0301 3.04986 72.9904 3.04986C85.1953 3.04986 96.7986 6.43379 106.746 12.2801L107.018 12.4405L107.28 12.2624C107.549 12.0792 107.769 11.8552 107.95 11.6696L107.963 11.6565C108.159 11.4571 108.315 11.3 108.495 11.1775L109.141 10.7378L108.471 10.3355C98.0719 4.09105 85.9894 0.5 72.9904 0.5C59.5326 0.5 46.8397 4.40299 36.1354 11.1155L35.7039 11.386L35.9824 11.8125C36.3218 12.3322 36.672 12.6899 37.1825 13.0373Z" fill="#003941" stroke="#003941" stroke-miterlimit="10"/>
<path d="M135.075 38.7409L134.68 37.9824L134.213 38.6983C134.092 38.8828 133.938 39.0426 133.743 39.2417C133.738 39.246 133.734 39.2502 133.73 39.2545C133.548 39.4403 133.329 39.6641 133.15 39.9382L132.99 40.1832L133.125 40.4427C138.097 49.9789 140.811 60.9034 140.811 72.4487C140.811 85.5298 137.193 97.8413 131.012 108.306L130.774 108.71L131.162 108.974C131.369 109.115 131.543 109.257 131.734 109.413L131.739 109.417C131.926 109.57 132.13 109.737 132.376 109.904L132.813 110.201L133.086 109.748C139.661 98.8214 143.33 86.0234 143.33 72.4487C143.33 60.276 140.272 48.7282 135.075 38.7409Z" fill="#003941" stroke="#003941" stroke-miterlimit="10"/>
<path d="M13.9089 107.734L14.289 107.475L14.0631 107.075C8.33505 96.9189 5.01823 85.0693 5.01823 72.4487C5.01823 61.5238 7.58052 51.2125 11.954 41.9753L12.1371 41.5887L11.7834 41.348C11.6035 41.2255 11.4473 41.0684 11.252 40.869L11.2392 40.8559C11.0574 40.6703 10.838 40.4463 10.5688 40.2631L10.0921 39.9387L9.83847 40.4565C5.0986 50.1338 2.5 60.903 2.5 72.4487C2.5 85.5572 6.016 97.8861 11.9787 108.343L12.2152 108.758L12.6404 108.541C12.9723 108.371 13.4467 108.049 13.8818 107.752L13.9089 107.734Z" fill="#003941" stroke="#003941" stroke-miterlimit="10"/>
<path d="M103.926 134.635L103.678 134.256L103.277 134.465C94.0858 139.233 83.8406 141.848 72.8388 141.848C61.2377 141.848 50.236 138.772 40.587 133.539L40.1819 133.319L39.93 133.705C39.7612 133.963 39.6359 134.219 39.5248 134.446C39.5232 134.449 39.5216 134.453 39.52 134.456C39.4046 134.692 39.3033 134.897 39.1708 135.1L38.8759 135.552L39.3486 135.812C49.2848 141.273 60.7538 144.553 72.8388 144.553C84.3094 144.553 95.0156 141.742 104.648 136.747L105.082 136.522L104.867 136.083C104.7 135.741 104.532 135.485 104.37 135.258C104.31 135.174 104.255 135.099 104.203 135.028C104.107 134.898 104.02 134.779 103.926 134.635Z" fill="#003941" stroke="#003941" stroke-miterlimit="10"/>
</g>
<defs>
<clipPath id="clip0_502_538">
<rect width="145" height="145" fill="white"/>
</clipPath>
</defs>
</svg>
