<svg width="145" height="145" viewBox="0 0 145 145" fill="none" xmlns="http://www.w3.org/2000/svg">
<path d="M96.0001 27C93.5573 27 91.2773 27.1646 88.8344 27.4937C88.8344 27.8229 88.8344 27.9875 88.8344 28.3166C88.8344 28.6458 88.8344 28.975 88.8344 29.1395C91.1144 28.8104 93.5573 28.4812 96.0001 28.4812C120.266 28.4812 139.972 48.3953 139.972 72.9177C139.972 97.4401 120.266 117.354 96.0001 117.354C71.7344 117.354 52.0287 97.4401 52.0287 72.9177C52.0287 56.7889 60.4973 42.7996 73.2001 34.8998C72.7116 34.5707 72.223 34.2415 71.7344 33.9123C58.8687 42.1413 50.4001 56.4597 50.4001 72.9177C50.4001 98.263 70.9201 119 96.0001 119C121.08 119 141.6 98.263 141.6 72.9177C141.6 47.5724 121.243 27 96.0001 27Z" fill="#454545" stroke="#003941" stroke-width="3" stroke-miterlimit="10"/>
<path d="M48.5974 119C51.065 119 53.3681 119 55.8357 118.671C55.8357 118.342 55.8357 118.177 55.8357 117.848C55.8357 117.519 55.8357 117.19 55.8357 117.026C53.5326 117.355 51.065 117.519 48.5974 117.355C24.0858 116.532 4.83852 95.965 5.66105 71.6138C6.48359 47.0979 27.047 27.8473 51.394 28.67C75.741 29.4926 95.1529 50.0596 94.3303 74.4109C93.8368 90.3708 84.7889 104.192 71.7929 111.596C72.2864 111.925 72.7799 112.254 73.2734 112.748C86.434 105.014 95.4819 90.8644 95.9754 74.4109C96.7979 49.0724 76.8926 27.8473 51.394 27.0246C26.0599 26.2019 4.67401 46.1107 4.01598 71.6138C3.35795 97.1168 23.0988 118.342 48.5974 119Z" fill="#454545" stroke="#003941" stroke-width="3" stroke-miterlimit="10"/>
<path d="M71.4465 34.4373L71.1462 111.298L72.7851 111.305L73.0853 34.4437L71.4465 34.4373Z" fill="#454545" stroke="#003941" stroke-width="3" stroke-miterlimit="10"/>
<path d="M89.4079 50.7714L71.6475 65.5533L72.6958 66.8129L90.4562 52.031L89.4079 50.7714Z" fill="#454545" stroke="#003941" stroke-width="3" stroke-miterlimit="10"/>
<path d="M94.3873 68.9632L71.5964 87.6921L72.6369 88.9582L95.4278 70.2294L94.3873 68.9632Z" fill="#454545" stroke="#003941" stroke-width="3" stroke-miterlimit="10"/>
<path d="M56.654 53.0465L55.6523 54.3434L71.6051 66.6638L72.6067 65.3668L56.654 53.0465Z" fill="#454545" stroke="#003941" stroke-width="3" stroke-miterlimit="10"/>
<path d="M51.518 69.9797L50.4648 71.2354L71.5601 88.9277L72.6132 87.672L51.518 69.9797Z" fill="#454545" stroke="#003941" stroke-width="3" stroke-miterlimit="10"/>
</svg>
