<svg width="145" height="145" viewBox="0 0 145 145" fill="none" xmlns="http://www.w3.org/2000/svg">
<path d="M57.9583 138.4C51.78 138.4 45.6017 136.865 39.8868 133.948C27.0668 127.346 19.1895 114.756 18.8806 100.325V99.7106C18.7261 92.6482 16.5637 85.7394 12.5478 79.7518L12.2389 79.1376C4.20706 67.1623 3.43478 52.4235 10.0765 39.6806C16.7181 26.9377 29.3836 19.1077 43.9027 18.8006H44.5205C51.6255 18.6471 58.5761 16.4977 64.6 12.5059L65.2178 12.1988C77.2655 4.21532 92.0934 3.44766 104.913 10.0494C117.733 16.6512 125.611 29.2406 125.92 43.6724V44.2865C126.074 51.3488 128.237 58.2576 132.252 64.2453L132.561 64.8594C140.593 76.8347 141.365 91.5735 134.724 104.316C128.082 117.059 115.417 124.889 100.898 125.196H100.28C93.1746 125.35 86.224 127.499 80.2002 131.491L79.5824 131.798C72.9407 136.251 65.3723 138.4 57.9583 138.4ZM86.6874 7.13237C79.4279 7.13237 72.3229 9.28179 65.9901 13.4271L65.3723 13.7341C59.194 17.8794 51.9344 20.1824 44.5205 20.3359H43.9027C30.0015 20.643 17.7993 28.0124 11.4666 40.2947C5.1338 52.5771 5.75166 66.7018 13.4745 78.2165L13.7834 78.8306C17.9538 84.9718 20.2707 92.1876 20.4251 99.557V100.171C20.7341 113.989 28.148 126.118 40.5046 132.412C52.8612 138.861 67.0713 138.093 78.6556 130.416L79.2734 130.109C85.4517 125.964 92.7113 123.661 100.125 123.508H100.743C114.644 123.201 126.846 115.831 133.179 103.549C139.666 91.2665 138.894 77.1418 131.171 65.6271L130.862 65.0129C126.692 58.8718 124.375 51.6559 124.221 44.2865V43.6724C123.912 29.8547 116.498 17.7259 104.141 11.4312C98.5807 8.51414 92.7113 7.13237 86.6874 7.13237Z" fill="#454545" stroke="#003941" stroke-width="2" stroke-miterlimit="10"/>
<path d="M81.6345 140.8C71.9383 140.8 62.5499 137.104 55.1622 130.175C49.9293 125.248 43.3112 122.014 36.2314 120.628C21.9179 118.011 10.6826 108.156 6.0653 94.2976C1.44804 80.4393 4.68013 65.8111 14.6842 55.1863C19.6093 49.951 22.8414 43.3298 24.2266 36.2466C26.843 21.9264 36.6932 10.6857 50.545 6.06628C64.3968 1.44683 79.0181 4.68045 89.6378 14.6892C94.8707 19.6166 101.489 22.8503 108.569 24.2361C122.882 26.8538 134.117 36.7086 138.735 50.5669C143.352 64.4252 140.12 79.0535 130.116 89.6782C125.191 94.9136 121.959 101.535 120.573 108.618C117.957 122.938 108.107 134.179 94.2551 138.798C90.0995 140.184 85.7901 140.8 81.6345 140.8ZM63.0116 5.75832C59.0099 5.75832 55.0083 6.37425 51.0067 7.76008C37.7705 12.0716 28.3821 23.0042 25.7657 36.7086C24.3805 44.0997 20.9945 50.8749 15.9155 56.4182C6.37316 66.581 3.29494 80.5933 7.60439 93.9897C11.9138 107.232 22.8414 116.625 36.5393 119.243C43.9269 120.628 50.6989 124.016 56.2396 129.097C66.3976 138.644 80.4032 141.724 93.7933 137.412C107.029 133.101 116.418 122.168 119.034 108.464C120.42 101.073 123.806 94.2976 128.885 88.7543C138.427 78.5915 141.505 64.5792 137.196 51.1828C132.886 37.9404 121.959 28.5476 108.261 25.9299C100.873 24.544 94.1011 21.1565 88.5604 16.0751C81.3267 9.29989 72.2461 5.75832 63.0116 5.75832Z" fill="#454545" stroke="#003941" stroke-width="2" stroke-miterlimit="10"/>
</svg>
